<?xml version="1.0" standalone="no"?>
<!DOCTYPE svg PUBLIC "-//W3C//DTD SVG 20010904//EN"
 "http://www.w3.org/TR/2001/REC-SVG-20010904/DTD/svg10.dtd">
<svg version="1.0" xmlns="http://www.w3.org/2000/svg"
 width="1280.000000pt" height="833.000000pt" viewBox="0 0 1280.000000 833.000000"
 preserveAspectRatio="xMidYMid meet">
<metadata>
Created by potrace 1.15, written by Peter Selinger 2001-2017
</metadata>
<g transform="translate(0.000000,833.000000) scale(0.100000,-0.100000)"
fill="#000000" stroke="none">
<path d="M4275 8316 c-78 -19 -126 -46 -181 -101 -53 -53 -86 -122 -105 -219
-5 -27 -9 -389 -9 -831 0 -871 -2 -850 67 -926 58 -64 107 -83 283 -109 41 -7
86 -14 99 -16 27 -6 29 30 -14 -329 -14 -121 -39 -343 -55 -494 -17 -151 -31
-275 -32 -277 -5 -4 -568 24 -718 37 -80 6 -208 9 -285 6 -77 -3 -549 -46
-1050 -96 -500 -50 -1070 -107 -1265 -126 -587 -58 -729 -88 -821 -173 -132
-123 -133 -124 -162 -208 l-28 -80 11 -204 c14 -278 17 -301 51 -369 71 -141
194 -198 483 -222 l146 -12 0 -76 c0 -317 -47 -816 -116 -1226 -48 -286 -242
-1194 -279 -1302 -22 -64 -19 -155 5 -203 23 -45 75 -83 135 -99 22 -6 137
-22 255 -36 118 -14 256 -32 305 -41 152 -26 264 6 372 109 117 111 171 230
273 602 42 154 116 507 146 697 l17 107 36 5 c78 12 2453 326 2465 326 10 0
16 -21 20 -68 77 -841 85 -900 148 -1065 58 -152 118 -230 213 -277 50 -25 51
-25 323 -23 320 2 310 -1 479 126 137 104 138 106 130 355 -4 121 -22 328 -52
587 -126 1106 -124 1085 -101 1085 37 0 2079 -221 2084 -226 2 -1 -8 -56 -23
-121 -35 -156 -64 -304 -125 -645 -163 -903 -218 -1167 -332 -1592 -64 -236
-47 -332 68 -406 56 -35 353 -134 456 -151 59 -10 87 -10 120 -1 24 6 78 21
122 32 87 23 455 168 528 207 69 37 163 140 198 216 17 35 42 109 57 163 25
96 25 106 23 377 -1 152 1 277 5 277 3 0 257 43 563 95 306 52 703 120 882
151 179 30 388 66 464 79 77 14 141 24 142 22 1 -1 9 -61 17 -133 17 -141 65
-322 117 -431 53 -114 145 -191 251 -211 25 -5 164 -5 310 0 185 5 278 5 312
-3 64 -15 149 2 246 48 89 42 154 100 189 168 32 60 34 119 13 415 -15 232
-15 229 -176 720 -68 206 -140 443 -160 525 -34 139 -84 413 -100 547 -8 65
-23 55 125 84 155 30 239 73 279 144 22 40 22 41 18 428 -4 411 -7 441 -56
529 -32 55 -75 81 -158 93 -39 5 -81 14 -94 19 -13 4 -49 12 -79 15 -89 12
-85 8 -82 78 11 268 65 1004 74 1013 11 12 120 6 168 -9 62 -19 126 -16 276
14 109 22 158 45 207 99 78 87 93 137 162 556 30 182 97 590 150 908 52 319
95 592 95 608 0 57 -32 184 -58 232 -32 60 -65 88 -153 133 l-68 34 -2688 3
c-1662 3 -2837 8 -3078 15 -214 6 -588 16 -830 22 -242 6 -672 17 -955 25
-599 17 -629 17 -695 1z m1694 -2386 c1330 -149 1987 -188 3696 -220 809 -15
885 -17 891 -23 6 -6 -7 -518 -22 -869 l-6 -148 -42 0 c-24 0 -362 25 -752 55
-1305 100 -1327 102 -2734 165 -1165 53 -1544 71 -1547 74 -9 9 59 560 97 782
31 183 40 224 52 224 6 0 171 -18 367 -40z m-3279 -2526 c767 -63 1442 -121
1516 -130 50 -6 52 -7 58 -43 3 -20 6 -61 6 -91 l0 -56 -562 -58 c-310 -32
-837 -87 -1173 -122 -335 -35 -618 -64 -629 -64 -17 0 -18 6 -12 58 6 59 46
538 46 558 0 8 15 10 43 7 23 -2 341 -28 707 -59z m7864 -276 c3 -24 11 -106
16 -183 6 -77 20 -236 31 -354 11 -118 16 -218 12 -221 -9 -7 -1884 -392
-1888 -388 -7 7 200 944 211 957 2 2 362 54 801 116 439 62 801 113 805 114 4
0 9 -18 12 -41z"/>
</g>
</svg>
